<svg xmlns="http://www.w3.org/2000/svg" viewBox="0 0 800 200" fill="none" aria-hidden="true">
  <rect width="800" height="200" fill="#f8fafc"/>
  <text x="400" y="32" text-anchor="middle" fill="#0f172a" font-family="system-ui, sans-serif" font-size="14" font-weight="600">From LINE tap to store visibility (concept)</text>
  <g>
    <rect x="40" y="56" width="160" height="120" rx="10" stroke="#64748b" stroke-width="1.5" fill="#fff"/>
    <text x="120" y="88" text-anchor="middle" fill="#334155" font-family="system-ui, sans-serif" font-size="11" font-weight="600">1 Staff</text>
    <text x="120" y="108" text-anchor="middle" fill="#64748b" font-family="system-ui, sans-serif" font-size="10">LINE reply</text>
    <rect x="72" y="118" width="96" height="36" rx="6" fill="#dbeafe" stroke="#3b82f6"/>
    <text x="120" y="140" text-anchor="middle" fill="#1d4ed8" font-family="system-ui, sans-serif" font-size="10" font-weight="600">Tap</text>
  </g>
  <path d="M 210 116 L 238 116" stroke="#94a3b8" stroke-width="2"/>
  <path d="M 232 110 L 240 116 L 232 122" fill="#94a3b8"/>
  <g>
    <rect x="248" y="56" width="160" height="120" rx="10" stroke="#64748b" stroke-width="1.5" fill="#fff"/>
    <text x="328" y="88" text-anchor="middle" fill="#334155" font-family="system-ui, sans-serif" font-size="11" font-weight="600">2 System</text>
    <rect x="272" y="100" width="112" height="56" rx="6" fill="#f1f5f9" stroke="#cbd5e1"/>
    <text x="328" y="124" text-anchor="middle" fill="#64748b" font-family="system-ui, sans-serif" font-size="9">Record · route</text>
    <text x="328" y="142" text-anchor="middle" fill="#64748b" font-family="system-ui, sans-serif" font-size="9">by store rules</text>
  </g>
  <path d="M 418 116 L 446 116" stroke="#94a3b8" stroke-width="2"/>
  <path d="M 440 110 L 448 116 L 440 122" fill="#94a3b8"/>
  <g>
    <rect x="456" y="56" width="160" height="120" rx="10" stroke="#64748b" stroke-width="1.5" fill="#fff"/>
    <text x="536" y="88" text-anchor="middle" fill="#334155" font-family="system-ui, sans-serif" font-size="11" font-weight="600">3 Manager</text>
    <rect x="480" y="100" width="112" height="44" rx="4" fill="#fff" stroke="#334155"/>
    <text x="536" y="124" text-anchor="middle" fill="#334155" font-family="system-ui, sans-serif" font-size="9">Browser</text>
    <text x="536" y="142" text-anchor="middle" fill="#64748b" font-family="system-ui, sans-serif" font-size="9">shift · report</text>
  </g>
  <path d="M 626 116 L 654 116" stroke="#94a3b8" stroke-width="2"/>
  <path d="M 648 110 L 656 116 L 648 122" fill="#94a3b8"/>
  <g>
    <rect x="664" y="56" width="96" height="120" rx="10" stroke="#059669" stroke-width="1.5" fill="#ecfdf5"/>
    <text x="712" y="100" text-anchor="middle" fill="#047857" font-family="system-ui, sans-serif" font-size="11" font-weight="600">Outcome</text>
    <text x="712" y="124" text-anchor="middle" fill="#64748b" font-family="system-ui, sans-serif" font-size="9">Fewer misses</text>
    <text x="712" y="142" text-anchor="middle" fill="#64748b" font-family="system-ui, sans-serif" font-size="9">clear ops</text>
  </g>
</svg>
