<svg xmlns="http://www.w3.org/2000/svg" viewBox="0 0 720 220" fill="none" aria-hidden="true">
  <rect width="720" height="220" fill="#f8fafc"/>
  <text x="360" y="32" text-anchor="middle" fill="#0f172a" font-family="system-ui, sans-serif" font-size="14" font-weight="600">LINE flow (example)</text>
  <rect x="32" y="56" width="180" height="140" rx="10" stroke="#64748b" stroke-width="1.5" fill="#fff"/>
  <circle cx="52" cy="76" r="10" fill="#1e293b" fill-opacity="0.08"/>
  <text x="62" y="81" fill="#0f172a" font-family="system-ui, sans-serif" font-size="12" font-weight="700">1</text>
  <text x="122" y="82" text-anchor="middle" fill="#334155" font-family="system-ui, sans-serif" font-size="12" font-weight="600">Add account</text>
  <rect x="52" y="100" width="140" height="72" rx="6" fill="#f1f5f9" stroke="#cbd5e1"/>
  <text x="122" y="142" text-anchor="middle" fill="#64748b" font-family="system-ui, sans-serif" font-size="10">Official LINE</text>
  <path d="M 220 126 L 248 126" stroke="#94a3b8" stroke-width="2"/>
  <path d="M 242 120 L 250 126 L 242 132" fill="#94a3b8"/>
  <rect x="256" y="56" width="200" height="140" rx="10" stroke="#64748b" stroke-width="1.5" fill="#fff"/>
  <circle cx="276" cy="76" r="10" fill="#1e293b" fill-opacity="0.08"/>
  <text x="286" y="81" fill="#0f172a" font-family="system-ui, sans-serif" font-size="12" font-weight="700">2</text>
  <text x="356" y="82" text-anchor="middle" fill="#334155" font-family="system-ui, sans-serif" font-size="12" font-weight="600">Get message</text>
  <rect x="276" y="100" width="160" height="14" rx="3" fill="#e2e8f0"/>
  <rect x="276" y="122" width="120" height="14" rx="3" fill="#e2e8f0"/>
  <rect x="276" y="144" width="100" height="22" rx="4" fill="#dbeafe" stroke="#3b82f6" stroke-width="1"/>
  <text x="326" y="159" text-anchor="middle" fill="#1d4ed8" font-family="system-ui, sans-serif" font-size="9" font-weight="600">Flex</text>
  <path d="M 464 126 L 492 126" stroke="#94a3b8" stroke-width="2"/>
  <path d="M 486 120 L 494 126 L 486 132" fill="#94a3b8"/>
  <rect x="500" y="56" width="188" height="140" rx="10" stroke="#64748b" stroke-width="1.5" fill="#fff"/>
  <circle cx="520" cy="76" r="10" fill="#1e293b" fill-opacity="0.08"/>
  <text x="530" y="81" fill="#0f172a" font-family="system-ui, sans-serif" font-size="12" font-weight="700">3</text>
  <text x="594" y="82" text-anchor="middle" fill="#334155" font-family="system-ui, sans-serif" font-size="12" font-weight="600">Tap to reply</text>
  <rect x="520" y="104" width="148" height="28" rx="6" fill="#f8fafc" stroke="#334155" stroke-width="1"/>
  <text x="594" y="122" text-anchor="middle" fill="#0f172a" font-family="system-ui, sans-serif" font-size="10" font-weight="600">OK</text>
  <rect x="520" y="140" width="148" height="28" rx="6" fill="#f8fafc" stroke="#334155" stroke-width="1"/>
  <text x="594" y="158" text-anchor="middle" fill="#0f172a" font-family="system-ui, sans-serif" font-size="10" font-weight="600">Late</text>
  <text x="594" y="196" text-anchor="middle" fill="#64748b" font-family="system-ui, sans-serif" font-size="10">Reason if asked</text>
</svg>
